<!-- <svg xmlns="http://www.w3.org/2000/svg" width="35" height="35" viewBox="0 0 35 35" fill="none">
  <path d="M7.92455 28.1577C6.9034 27.1219 6.9034 25.4426 7.92455 24.4069L9.74872 22.5566L15.2968 28.349L11.8263 29.2499L7.92455 28.1577Z" fill="url(#paint0_linear_3363_47878)"/>
  <path d="M0.478784 20.807C-0.159595 20.1595 -0.159595 19.1095 0.478784 18.462L3.05024 15.8538L8.35746 21.2368L0.478784 20.807Z" fill="url(#paint1_linear_3363_47878)"/>
  <path d="M33.9823 19.3653L20.0488 33.4978C18.9899 34.5683 17.2778 34.5683 16.2192 33.4978L2.28571 19.3653C1.23028 18.2912 1.23028 16.5547 2.28571 15.4809L16.2192 1.34838C17.2782 0.277877 18.9902 0.277877 20.0488 1.34838L33.9823 15.4809C35.0378 16.5547 35.0378 18.2912 33.9823 19.3653Z" fill="url(#paint2_linear_3363_47878)"/>
  <path opacity="0.28" d="M33.1121 15.5819C30.465 16.8791 26.4736 17.4055 20.7977 14.8356C13.6263 11.5929 6.80912 13.9675 2.40869 16.4779C2.50158 16.2966 2.6217 16.1257 2.7732 15.9724L16.7032 1.83983C17.0847 1.45614 17.5936 1.24367 18.1334 1.24367C18.6731 1.24367 19.1817 1.45647 19.5636 1.84341L33.1121 15.5819Z" fill="url(#paint3_linear_3363_47878)"/>
  <g opacity="0.44">
    <path d="M27.9271 18.8246L25.9021 26.4994L24.74 24.5225L21.1442 28.1732C20.3053 29.0205 19.3806 29.7528 18.387 30.3525C17.0942 31.1371 15.647 31.4961 14.2133 31.465L11.7896 29.0065C14.4468 28.8564 16.9187 27.7408 18.8165 25.8162L22.4812 22.1027L20.2121 20.7255L27.9271 18.8246Z" fill="url(#paint4_linear_3363_47878)"/>
    <path d="M23.8615 9.68913L21.4825 18.7064L20.1141 16.3841L15.8889 20.6661C14.9642 21.604 13.9466 22.4201 12.8636 23.1001C11.1653 24.1635 9.24376 24.6206 7.35265 24.5052L4.55762 21.6703C7.78923 21.5693 10.8661 20.2268 13.1589 17.901L17.4562 13.5387L14.7954 11.9243L23.8615 9.68913Z" fill="url(#paint5_linear_3363_47878)"/>
  </g>
  <path d="M27.2423 17.9549L25.2173 25.6297L24.052 23.6527L20.4562 27.2999C19.6179 28.1501 18.6929 28.8798 17.7012 29.4812C14.556 31.3879 10.516 30.7856 7.92529 28.1576H10.4794C13.3706 28.1576 16.0865 27.0172 18.132 24.9425L21.7931 21.2323L19.5276 19.8551L27.2423 17.9549Z" fill="url(#paint6_linear_3363_47878)"/>
  <path d="M23.1751 8.81549L20.7961 17.8363L19.4246 15.5104L15.1993 19.796C14.2746 20.7339 13.2599 21.5478 12.175 22.2287C8.43695 24.5757 3.58713 23.9601 0.478516 20.807H3.47982C6.85205 20.807 10.0862 19.4484 12.4706 17.0296L16.7701 12.6683L14.1093 11.054L23.1751 8.81549Z" fill="url(#paint7_linear_3363_47878)"/>
  <g opacity="0.5">
    <path opacity="0.78" d="M26.7596 18.4309L25.388 23.6333C24.3668 22.8662 23.2394 22.1479 22.0154 21.4994L22.3489 21.1648L20.4238 19.9932L26.7596 18.4309Z" fill="url(#paint8_linear_3363_47878)"/>
    <path opacity="0.78" d="M22.6932 9.29504L20.6753 16.9487L19.4927 14.9471L15.5359 18.964C14.5938 18.706 13.6246 18.4864 12.631 18.3048C12.3389 18.2525 12.0464 18.2038 11.7578 18.1583C12.0877 17.8828 12.4077 17.5865 12.7136 17.2762L17.327 12.6001L15.0064 11.1914L22.6932 9.29504Z" fill="url(#paint9_linear_3363_47878)"/>
  </g>
  <defs>
    <linearGradient id="paint0_linear_3363_47878" x1="7.15866" y1="25.9031" x2="15.2969" y2="25.9031" gradientUnits="userSpaceOnUse">
      <stop stop-color="#B0D1FF"/>
      <stop offset="1" stop-color="#4F93FF"/>
    </linearGradient>
    <linearGradient id="paint1_linear_3363_47878" x1="-0.000112109" y1="18.5454" x2="8.35733" y2="18.5454" gradientUnits="userSpaceOnUse">
      <stop stop-color="#B0D1FF"/>
      <stop offset="1" stop-color="#4F93FF"/>
    </linearGradient>
    <linearGradient id="paint2_linear_3363_47878" x1="18.0062" y1="31.0963" x2="18.3599" y2="-5.68908" gradientUnits="userSpaceOnUse">
      <stop stop-color="#0058D4"/>
      <stop offset="1" stop-color="#00245B"/>
    </linearGradient>
    <linearGradient id="paint3_linear_3363_47878" x1="17.8538" y1="8.0426" x2="17.7359" y2="17.8641" gradientUnits="userSpaceOnUse">
      <stop/>
      <stop offset="1" stop-color="#B0D1FF"/>
    </linearGradient>
    <linearGradient id="paint4_linear_3363_47878" x1="11.7902" y1="25.1458" x2="27.9273" y2="25.1458" gradientUnits="userSpaceOnUse">
      <stop stop-color="#001334"/>
      <stop offset="1" stop-color="#00245B"/>
    </linearGradient>
    <linearGradient id="paint5_linear_3363_47878" x1="4.558" y1="17.1057" x2="23.8613" y2="17.1057" gradientUnits="userSpaceOnUse">
      <stop stop-color="#001334"/>
      <stop offset="1" stop-color="#00245B"/>
    </linearGradient>
    <linearGradient id="paint6_linear_3363_47878" x1="7.92526" y1="24.2753" x2="27.2424" y2="24.2753" gradientUnits="userSpaceOnUse">
      <stop stop-color="#0065FF"/>
      <stop offset="1" stop-color="#00C4F7"/>
    </linearGradient>
    <linearGradient id="paint7_linear_3363_47878" x1="0.478772" y1="16.2332" x2="23.1752" y2="16.2332" gradientUnits="userSpaceOnUse">
      <stop stop-color="#0065FF"/>
      <stop offset="1" stop-color="#00C4F7"/>
    </linearGradient>
    <linearGradient id="paint8_linear_3363_47878" x1="24.7575" y1="18.6926" x2="20.9552" y2="24.9214" gradientUnits="userSpaceOnUse">
      <stop/>
      <stop offset="1" stop-color="#B0D1FF"/>
    </linearGradient>
    <linearGradient id="paint9_linear_3363_47878" x1="17.4127" y1="14.6288" x2="12.9226" y2="20.3205" gradientUnits="userSpaceOnUse">
      <stop/>
      <stop offset="1" stop-color="#B0D1FF"/>
    </linearGradient>
  </defs>
</svg> -->

<svg xmlns="http://www.w3.org/2000/svg" x="0px" y="0px" width="100" height="100" viewBox="0 0 100 100">
<path fill="#c7ede6" d="M88.494,55.791c0.299-0.614,0.563-1.259,0.792-1.935c2.622-7.739-1.343-17.008-9.693-19.245c-0.903-11.338-8.87-19.115-17.867-20.442c-10.298-1.519-19.733,5.023-22.872,15.422c-3.784-1.34-7.471-1.177-10.945,0.853c-1.576,0.729-3.018,1.805-4.312,3.22c-1.9,2.077-3.134,4.7-3.637,7.465c-0.745,0.117-1.477,0.235-2.167,0.482c-4.023,1.443-6.562,4.413-7.258,8.886c-0.434,2.785,0.441,5.564,0.929,6.687c1.927,4.436,6.396,6.952,10.936,6.286c0.226-0.033,0.554,0.069,0.749,0.232c0.24,7.091,3.683,13.362,8.848,16.944c8.287,5.748,18.949,3.977,25.675-3.905c2.882,2.948,6.313,4.38,10.342,3.86c4.006-0.517,7.117-2.728,9.387-6.322c1.048,0.282,2.043,0.689,3.071,0.801c4.025,0.44,7.294-1.161,9.692-4.78c0.918-1.385,1.786-3.181,1.786-6.328C91.95,60.727,90.662,57.772,88.494,55.791z"></path><path fill="#fdfcef" d="M41.135,46.449c0,0,11.643,0,11.714,0c2.689,0,4.868-2.18,4.868-4.869c0-2.346-1.659-4.303-3.868-4.765c0.025-0.205,0.043-0.413,0.043-0.625c0-2.785-2.257-5.042-5.042-5.042c-1.644,0-3.1,0.791-4.02,2.008c-0.235-3.1-3.004-5.491-6.244-5.095c-2.369,0.29-4.328,2.121-4.764,4.467c-0.14,0.752-0.125,1.483,0.014,2.168c-0.635-0.684-1.539-1.115-2.546-1.115c-1.843,0-3.347,1.435-3.466,3.248c-0.837-0.185-1.747-0.173-2.706,0.187c-1.832,0.688-3.137,2.413-3.214,4.369c-0.108,2.778,2.111,5.064,4.864,5.064c0.209,0,0.944,0,1.114,0h10.109"></path><path fill="#472b29" d="M52.849,46.949H41.135c-0.276,0-0.5-0.224-0.5-0.5s0.224-0.5,0.5-0.5h11.714c2.408,0,4.368-1.96,4.368-4.368c0-2.058-1.459-3.855-3.471-4.275c-0.254-0.053-0.426-0.292-0.394-0.551c0.022-0.186,0.039-0.372,0.039-0.564c0-2.505-2.037-4.542-4.542-4.542c-1.433,0-2.753,0.659-3.621,1.81c-0.126,0.166-0.343,0.236-0.54,0.178c-0.2-0.059-0.342-0.234-0.358-0.441c-0.104-1.371-0.775-2.658-1.842-3.533c-1.077-0.883-2.44-1.276-3.843-1.104c-2.156,0.264-3.938,1.935-4.333,4.062c-0.124,0.665-0.12,1.33,0.013,1.979c0.045,0.22-0.062,0.442-0.262,0.544c-0.197,0.104-0.442,0.061-0.595-0.104c-0.571-0.616-1.346-0.955-2.18-0.955c-1.562,0-2.864,1.222-2.967,2.781c-0.01,0.146-0.082,0.279-0.199,0.366c-0.116,0.089-0.268,0.12-0.407,0.089c-0.84-0.185-1.633-0.13-2.423,0.166c-1.661,0.624-2.822,2.2-2.89,3.921c-0.047,1.201,0.385,2.339,1.216,3.203s1.95,1.341,3.149,1.341h11.223c0.276,0,0.5,0.224,0.5,0.5s-0.224,0.5-0.5,0.5H26.769c-1.474,0-2.849-0.585-3.87-1.647s-1.553-2.46-1.495-3.936c0.084-2.118,1.506-4.054,3.538-4.817c0.797-0.298,1.62-0.397,2.457-0.298c0.377-1.815,1.99-3.169,3.891-3.169c0.681,0,1.347,0.178,1.934,0.506c0-0.383,0.035-0.768,0.107-1.151c0.474-2.552,2.609-4.555,5.194-4.871c1.672-0.204,3.307,0.264,4.598,1.322c1,0.819,1.709,1.941,2.03,3.178c1.007-0.91,2.309-1.417,3.697-1.417c3.056,0,5.542,2.486,5.542,5.542c0,0.083-0.002,0.165-0.007,0.246c2.245,0.671,3.832,2.767,3.832,5.145C58.217,44.541,55.809,46.949,52.849,46.949z"></path><path fill="#fdfcef" d="M38.314,35.724c-1.801-0.118-3.351,1.126-3.462,2.778c-0.014,0.205-0.005,0.407,0.025,0.604c-0.347-0.392-0.862-0.659-1.452-0.697c-1.08-0.071-2.013,0.643-2.149,1.613c-0.197-0.054-0.401-0.09-0.614-0.104c-1.576-0.103-2.932,0.985-3.029,2.431"></path><path fill="#472b29" d="M27.633,42.598c-0.005,0-0.011,0-0.017-0.001c-0.138-0.009-0.242-0.128-0.232-0.266c0.105-1.58,1.565-2.774,3.295-2.663c0.133,0.008,0.269,0.025,0.405,0.052c0.273-0.964,1.242-1.641,2.357-1.561c0.417,0.026,0.817,0.161,1.157,0.382c0.001-0.02,0.002-0.038,0.004-0.057c0.119-1.785,1.764-3.148,3.728-3.01c0.138,0.009,0.242,0.128,0.232,0.266c-0.008,0.137-0.106,0.268-0.266,0.232c-1.657-0.093-3.095,1.034-3.196,2.546c-0.013,0.181-0.005,0.365,0.022,0.55c0.017,0.109-0.041,0.217-0.142,0.264c-0.102,0.045-0.22,0.022-0.293-0.062c-0.315-0.357-0.782-0.581-1.279-0.613c-0.956-0.042-1.769,0.553-1.886,1.397c-0.011,0.071-0.051,0.135-0.11,0.174c-0.059,0.039-0.135,0.054-0.202,0.033c-0.192-0.052-0.382-0.083-0.564-0.096c-1.458-0.089-2.677,0.893-2.765,2.198C27.873,42.497,27.764,42.598,27.633,42.598z"></path><path fill="#fdfcef" d="M54.82,37.386c-1.692-0.798-3.649-0.233-4.371,1.262c-0.09,0.186-0.156,0.377-0.2,0.571"></path><path fill="#472b29" d="M50.249,39.469c-0.018,0-0.036-0.002-0.055-0.006c-0.135-0.03-0.22-0.165-0.189-0.299c0.049-0.216,0.123-0.426,0.22-0.626c0.778-1.615,2.89-2.234,4.701-1.379c0.125,0.06,0.179,0.208,0.12,0.333c-0.06,0.126-0.209,0.176-0.333,0.12c-1.569-0.739-3.379-0.226-4.038,1.144c-0.081,0.166-0.142,0.34-0.182,0.518C50.467,39.39,50.364,39.469,50.249,39.469z"></path><path fill="#fff" d="M21.7 59.463H11.71c-.276 0-.5-.224-.5-.5s.224-.5.5-.5H21.7c.276 0 .5.224.5.5S21.976 59.463 21.7 59.463zM24.569 59.463h-1.439c-.276 0-.5-.224-.5-.5s.224-.5.5-.5h1.439c.276 0 .5.224.5.5S24.845 59.463 24.569 59.463zM28.607 59.463h-2.535c-.276 0-.5-.224-.5-.5s.224-.5.5-.5h2.535c.276 0 .5.224.5.5S28.883 59.463 28.607 59.463zM28.607 61.321h-9.576c-.276 0-.5-.224-.5-.5s.224-.5.5-.5h9.576c.276 0 .5.224.5.5S28.883 61.321 28.607 61.321zM17.306 61.321h-.578c-.276 0-.5-.224-.5-.5s.224-.5.5-.5h.578c.276 0 .5.224.5.5S17.582 61.321 17.306 61.321zM14.939 61.321h-1.45c-.276 0-.5-.224-.5-.5s.224-.5.5-.5h1.45c.276 0 .5.224.5.5S15.215 61.321 14.939 61.321zM24.037 57.606h-5.007c-.276 0-.5-.224-.5-.5s.224-.5.5-.5h5.007c.276 0 .5.224.5.5S24.314 57.606 24.037 57.606zM24.037 55.749h-1.253c-.276 0-.5-.224-.5-.5s.224-.5.5-.5h1.253c.276 0 .5.224.5.5S24.314 55.749 24.037 55.749zM20.782 63.178h-1.751c-.276 0-.5-.224-.5-.5s.224-.5.5-.5h1.751c.276 0 .5.224.5.5S21.058 63.178 20.782 63.178zM69.39 23.549h-9.989c-.276 0-.5-.224-.5-.5s.224-.5.5-.5h9.989c.276 0 .5.224.5.5S69.666 23.549 69.39 23.549zM72.259 23.549H70.82c-.276 0-.5-.224-.5-.5s.224-.5.5-.5h1.439c.276 0 .5.224.5.5S72.536 23.549 72.259 23.549zM76.297 23.549h-2.535c-.276 0-.5-.224-.5-.5s.224-.5.5-.5h2.535c.276 0 .5.224.5.5S76.574 23.549 76.297 23.549zM74.28 19.835h-9.577c-.276 0-.5-.224-.5-.5s.224-.5.5-.5h9.577c.276 0 .5.224.5.5S74.556 19.835 74.28 19.835zM62.978 19.835h-.577c-.276 0-.5-.224-.5-.5s.224-.5.5-.5h.577c.276 0 .5.224.5.5S63.254 19.835 62.978 19.835zM60.612 19.835h-1.451c-.276 0-.5-.224-.5-.5s.224-.5.5-.5h1.451c.276 0 .5.224.5.5S60.888 19.835 60.612 19.835zM71.727 21.692H66.72c-.276 0-.5-.224-.5-.5s.224-.5.5-.5h5.007c.276 0 .5.224.5.5S72.003 21.692 71.727 21.692z"></path><path fill="#fff" d="M71.727 19.835h-1.252c-.276 0-.5-.224-.5-.5s.224-.5.5-.5h1.252c.276 0 .5.224.5.5S72.003 19.835 71.727 19.835zM65.271 21.692H63.52c-.276 0-.5-.224-.5-.5s.224-.5.5-.5h1.751c.276 0 .5.224.5.5S65.547 21.692 65.271 21.692z"></path><path fill="#fdfcef" d="M80.223,54.252c1.876,0,3.502,0,3.526,0c2.101,0,3.805-1.667,3.805-3.724c0-1.794-1.297-3.292-3.023-3.645c0.02-0.157,0.033-0.316,0.033-0.478c0-2.13-1.764-3.857-3.941-3.857c-1.285,0-2.423,0.605-3.142,1.536c-0.184-2.371-2.348-4.2-4.88-3.897c-1.851,0.222-3.383,1.622-3.723,3.417c-0.109,0.576-0.098,1.134,0.011,1.659c-0.496-0.523-1.203-0.853-1.99-0.853c-1.44,0-2.616,1.097-2.709,2.484c-0.654-0.142-1.365-0.132-2.115,0.143c-1.432,0.526-2.452,1.846-2.512,3.342c-0.085,2.125,1.65,3.873,3.802,3.873c0.163,0,0.738,0,0.87,0h7.901 M73.772,54.252h0.358"></path><path fill="#472b29" d="M83.748,54.752h-3.525c-0.276,0-0.5-0.224-0.5-0.5s0.224-0.5,0.5-0.5h3.525c1.822,0,3.305-1.446,3.305-3.224c0-1.518-1.103-2.844-2.622-3.154c-0.256-0.053-0.429-0.293-0.396-0.552c0.017-0.137,0.029-0.275,0.029-0.417c0-1.852-1.543-3.357-3.44-3.357c-1.087,0-2.088,0.489-2.747,1.342c-0.126,0.164-0.339,0.23-0.539,0.174c-0.197-0.06-0.339-0.234-0.354-0.44c-0.079-1.015-0.562-1.935-1.362-2.591c-0.825-0.677-1.878-0.978-2.96-0.85c-1.639,0.196-2.992,1.436-3.292,3.015c-0.093,0.491-0.09,0.983,0.009,1.464c0.046,0.219-0.06,0.441-0.258,0.545c-0.197,0.103-0.439,0.063-0.595-0.1c-0.426-0.449-1.003-0.696-1.626-0.696c-1.164,0-2.135,0.887-2.21,2.018c-0.01,0.146-0.082,0.278-0.198,0.366c-0.116,0.087-0.263,0.12-0.406,0.089c-0.635-0.137-1.235-0.097-1.838,0.124c-1.255,0.461-2.133,1.624-2.184,2.893c-0.035,0.87,0.281,1.699,0.891,2.333c0.632,0.657,1.488,1.02,2.412,1.02h8.771c0.276,0,0.5,0.224,0.5,0.5s-0.224,0.5-0.5,0.5h-8.771c-1.181,0-2.322-0.483-3.133-1.326c-0.8-0.832-1.215-1.921-1.17-3.066c0.068-1.669,1.209-3.192,2.839-3.792c0.608-0.222,1.236-0.301,1.873-0.243c0.344-1.39,1.623-2.414,3.124-2.414c0.49,0,0.971,0.112,1.405,0.32c0.009-0.24,0.036-0.48,0.082-0.72c0.38-2.002,2.089-3.573,4.155-3.82c1.354-0.16,2.676,0.217,3.713,1.068c0.744,0.61,1.271,1.402,1.539,2.29c0.788-0.645,1.778-1.001,2.83-1.001c2.448,0,4.44,1.955,4.44,4.357c0,0.033-0.001,0.067-0.001,0.101c1.757,0.553,2.99,2.18,2.99,4.022C88.053,52.857,86.122,54.752,83.748,54.752z M74.13,54.752h-0.358c-0.276,0-0.5-0.224-0.5-0.5s0.224-0.5,0.5-0.5h0.358c0.276,0,0.5,0.224,0.5,0.5S74.407,54.752,74.13,54.752z"></path><path fill="#472b29" d="M82.048 48.971c-.018 0-.036-.002-.055-.006-.135-.03-.22-.164-.189-.299.037-.164.094-.325.168-.478.604-1.221 2.27-1.67 3.708-1.002.126.058.181.206.122.331-.058.126-.209.181-.331.122-1.201-.553-2.568-.207-3.05.77-.058.116-.101.24-.129.366C82.266 48.892 82.162 48.971 82.048 48.971zM76.911 54.752h-1.103c-.276 0-.5-.224-.5-.5s.224-.5.5-.5h1.103c.276 0 .5.224.5.5S77.187 54.752 76.911 54.752z"></path><path fill="#e9e4c9" d="M76.297,68.724v-3.348v0c0-1.194-0.734-2.171-1.632-2.171H37.012c-0.898,0-1.632,0.977-1.632,2.171v0v3.032"></path><path fill="#472b29" d="M76.672,68.724h-0.75v-3.348c0-0.974-0.575-1.797-1.257-1.797H37.012c-0.682,0-1.257,0.823-1.257,1.797v3.031h-0.75v-3.031c0-1.404,0.9-2.547,2.007-2.547h37.653c1.106,0,2.007,1.143,2.007,2.547V68.724z"></path><path fill="#cdcbbd" d="M72.276,66.591h3.788c1.475,0,2.681,1.207,2.681,2.681v0c0,1.475-1.207,2.681-2.681,2.681H35.613c-1.475,0-2.681-1.207-2.681-2.681v0c0-1.475,1.207-2.681,2.681-2.681H66.44"></path><path fill="#472b29" d="M76.064 72.654H35.613c-1.864 0-3.381-1.518-3.381-3.382s1.517-3.381 3.381-3.381h30.828c.387 0 .7.313.7.7s-.313.7-.7.7H35.613c-1.092 0-1.98.889-1.98 1.98 0 1.093.889 1.981 1.98 1.981h40.451c1.093 0 1.981-.889 1.981-1.981 0-1.092-.889-1.98-1.981-1.98h-3.788c-.387 0-.7-.313-.7-.7s.313-.7.7-.7h3.788c1.864 0 3.382 1.517 3.382 3.381S77.928 72.654 76.064 72.654zM76.297 65.752c-.207 0-.375-.168-.375-.375 0-.974-.575-1.797-1.257-1.797H37.012c-.682 0-1.257.823-1.257 1.797 0 .207-.168.375-.375.375s-.375-.168-.375-.375c0-1.404.9-2.547 2.007-2.547h37.653c1.106 0 2.007 1.143 2.007 2.547C76.672 65.584 76.504 65.752 76.297 65.752z"></path><path fill="#cdcbbd" d="M68.578 66.591L69.419 66.591"></path><path fill="#472b29" d="M69.419,67.292h-0.842c-0.387,0-0.7-0.313-0.7-0.7s0.313-0.7,0.7-0.7h0.842c0.387,0,0.7,0.313,0.7,0.7S69.806,67.292,69.419,67.292z"></path><path fill="#e9e4c9" d="M48.529 48.79L48.529 63.062 46.588 63.062 46.588 41.139 48.529 41.139 48.529 44.415"></path><path fill="#472b29" d="M48.529,63.436h-1.94c-0.207,0-0.375-0.168-0.375-0.375V41.138c0-0.207,0.168-0.375,0.375-0.375h1.94c0.207,0,0.375,0.168,0.375,0.375v3.276c0,0.207-0.168,0.375-0.375,0.375s-0.375-0.168-0.375-0.375v-2.901h-1.19v21.173h1.19V48.79c0-0.207,0.168-0.375,0.375-0.375s0.375,0.168,0.375,0.375v14.271C48.904,63.268,48.736,63.436,48.529,63.436z"></path><path fill="#e9e4c9" d="M40.568 41.139H43.949V63.062H40.568z"></path><path fill="#472b29" d="M43.949,63.436h-3.381c-0.207,0-0.375-0.168-0.375-0.375V41.138c0-0.207,0.168-0.375,0.375-0.375h3.381c0.207,0,0.375,0.168,0.375,0.375v21.923C44.324,63.268,44.156,63.436,43.949,63.436z M40.943,62.686h2.631V41.513h-2.631V62.686z"></path><path fill="#e9e4c9" d="M67.729 41.139H71.11V63.062H67.729z"></path><path fill="#472b29" d="M71.11 63.436h-3.381c-.207 0-.375-.168-.375-.375V41.138c0-.207.168-.375.375-.375h3.381c.207 0 .375.168.375.375v21.923C71.485 63.268 71.317 63.436 71.11 63.436zM68.104 62.686h2.631V41.513h-2.631V62.686zM48.529 46.824c-.207 0-.375-.168-.375-.375V45.78c0-.207.168-.375.375-.375s.375.168.375.375v.669C48.904 46.656 48.736 46.824 48.529 46.824z"></path><path fill="#e9e4c9" d="M62.921 57.877L62.921 41.139 64.862 41.139 64.862 63.062 62.921 63.062 62.921 60.665"></path><path fill="#472b29" d="M64.862,63.436h-1.94c-0.207,0-0.375-0.168-0.375-0.375v-2.396c0-0.207,0.168-0.375,0.375-0.375s0.375,0.168,0.375,0.375v2.021h1.19V41.513h-1.19v16.363c0,0.207-0.168,0.375-0.375,0.375s-0.375-0.168-0.375-0.375V41.138c0-0.207,0.168-0.375,0.375-0.375h1.94c0.207,0,0.375,0.168,0.375,0.375v21.923C65.237,63.268,65.069,63.436,64.862,63.436z"></path><path fill="#472b29" d="M62.921,59.953c-0.207,0-0.375-0.168-0.375-0.375v-0.475c0-0.207,0.168-0.375,0.375-0.375s0.375,0.168,0.375,0.375v0.475C63.296,59.785,63.128,59.953,62.921,59.953z"></path><path fill="#cdcbbd" d="M54.918,26.299L37.328,37.936c-1.379,0.912-0.733,3.059,0.92,3.059h35.181c1.653,0,2.299-2.147,0.92-3.059L56.759,26.299C56.201,25.93,55.476,25.93,54.918,26.299z"></path><path fill="#472b29" d="M73.429 41.695H38.247c-1.069 0-1.959-.662-2.268-1.686-.308-1.024.069-2.067.962-2.657l17.59-11.638c.795-.525 1.82-.525 2.613 0l17.591 11.638c.893.59 1.27 1.633.961 2.656C75.389 41.033 74.498 41.695 73.429 41.695zM55.838 26.721c-.186 0-.371.054-.533.161 0 0 0 0-.001 0L37.713 38.52c-.442.293-.493.753-.393 1.086s.396.688.927.688h35.182c.531 0 .827-.355.928-.689.1-.333.049-.793-.393-1.085L56.372 26.882C56.21 26.775 56.025 26.721 55.838 26.721zM54.918 26.298h.01H54.918zM54 55.629c.016 0 .047.016.095.047l-.024-.012c.229.157.434.282.615.372.181.091.374.156.579.195v-3.676l-.212-.119c-.26-.142-.509-.291-.745-.449-.236-.157-.449-.331-.638-.52-.189-.189-.349-.39-.479-.604-.13-.212-.219-.445-.266-.697-.031-.126-.049-.244-.053-.354-.004-.111-.006-.229-.006-.354 0-.371.061-.694.183-.97.122-.276.29-.51.503-.703.212-.193.465-.348.756-.462.292-.113.611-.191.958-.23v-.331c0-.157.036-.291.107-.402s.201-.166.39-.166h.047c.41 0 .634.202.674.604l-.012.319c.221.039.447.1.68.184.232.083.495.187.786.313l-.036-.023c.134.047.238.106.313.177.075.072.12.186.136.343v.072c0 .055-.014.126-.042.212s-.069.17-.124.248c-.055.079-.118.148-.189.207-.071.06-.15.089-.236.089-.071 0-.136-.006-.195-.017-.059-.012-.128-.045-.207-.1v.012l-.13-.07c-.229-.119-.481-.214-.757-.284v3.227l.047.024c.638.323 1.131.681 1.478 1.076.347.394.576.804.686 1.23.047.181.081.346.1.496.02.149.029.304.029.461 0 .363-.059.689-.177.981s-.28.546-.485.762c-.205.217-.451.395-.739.532-.287.139-.601.231-.94.278v.851c0 .158-.031.292-.095.402-.063.111-.193.166-.39.166h-.071c-.197 0-.355-.053-.473-.16-.118-.106-.178-.262-.178-.466v-.792c-.425-.047-.792-.142-1.099-.284-.308-.142-.623-.319-.946-.532-.087-.07-.146-.137-.177-.201-.032-.062-.067-.149-.106-.26v-.07c0-.072.021-.152.065-.242.043-.091.096-.178.16-.261.063-.082.13-.154.201-.212s.138-.089.201-.089c.087 0 .163.025.231.077.066.051.132.104.195.159H54c.016.008.028.012.035.012L54 55.629zM54.609 50.604c.185.173.404.327.656.461v-2.589c-.3.063-.55.185-.75.366s-.301.426-.301.733c0 .047.002.099.006.154.004.055.014.122.029.201C54.303 50.206 54.424 50.431 54.609 50.604zM57.039 53.719c-.158-.193-.347-.36-.567-.502v2.944c.276-.111.506-.279.692-.509.185-.227.278-.496.278-.804 0-.087-.008-.165-.024-.237-.016-.07-.032-.145-.047-.224C57.306 54.135 57.196 53.913 57.039 53.719z"></path><path fill="#fbcd59" d="M70.141 65.154A6.791 6.791 0 1 0 70.141 78.73599999999999A6.791 6.791 0 1 0 70.141 65.154Z"></path><path fill="#472b29" d="M70.141,79.237c-4.021,0-7.291-3.271-7.291-7.292s3.271-7.291,7.291-7.291s7.292,3.271,7.292,7.291S74.161,79.237,70.141,79.237z M70.141,65.654c-3.469,0-6.291,2.822-6.291,6.291c0,3.47,2.822,6.292,6.291,6.292c3.47,0,6.292-2.822,6.292-6.292C76.433,68.476,73.611,65.654,70.141,65.654z"></path><path fill="#f1bc19" d="M70.141 67.50399999999999A4.441 4.441 0 1 0 70.141 76.386A4.441 4.441 0 1 0 70.141 67.50399999999999Z"></path><path fill="#472b29" d="M70.141,76.635c-2.586,0-4.69-2.104-4.69-4.69s2.104-4.69,4.69-4.69s4.69,2.104,4.69,4.69S72.727,76.635,70.141,76.635z M70.141,67.754c-2.311,0-4.19,1.88-4.19,4.19s1.88,4.19,4.19,4.19s4.19-1.88,4.19-4.19S72.452,67.754,70.141,67.754z"></path><path fill="#fbcd59" d="M81.474 59.45A6.791 6.791 0 1 0 81.474 73.032A6.791 6.791 0 1 0 81.474 59.45Z"></path><path fill="#472b29" d="M81.474,73.532c-4.021,0-7.291-3.271-7.291-7.291s3.271-7.292,7.291-7.292s7.292,3.271,7.292,7.292S85.495,73.532,81.474,73.532z M81.474,59.949c-3.469,0-6.291,2.822-6.291,6.292c0,3.469,2.822,6.291,6.291,6.291c3.47,0,6.292-2.822,6.292-6.291C87.766,62.771,84.944,59.949,81.474,59.949z"></path><path fill="#f1bc19" d="M81.474 61.8A4.441 4.441 0 1 0 81.474 70.682A4.441 4.441 0 1 0 81.474 61.8Z"></path><path fill="#472b29" d="M81.474,70.931c-2.586,0-4.69-2.104-4.69-4.69s2.104-4.69,4.69-4.69s4.69,2.104,4.69,4.69S84.06,70.931,81.474,70.931z M81.474,62.05c-2.311,0-4.19,1.88-4.19,4.19s1.88,4.19,4.19,4.19s4.19-1.88,4.19-4.19S83.785,62.05,81.474,62.05z"></path><path fill="#472b29" d="M80.794 67.427c.006 0 .018.006.037.018l-.009-.005c.089.061.169.11.239.145.071.035.146.06.225.076v-1.43l-.083-.046c-.101-.055-.198-.113-.29-.175s-.175-.129-.248-.202c-.074-.073-.136-.152-.186-.234-.051-.083-.085-.173-.104-.271-.012-.049-.019-.095-.021-.138-.001-.043-.002-.089-.002-.138 0-.144.024-.27.071-.377.048-.107.113-.199.196-.274.083-.075.181-.135.294-.18.113-.044.238-.074.372-.089v-.129c0-.061.014-.113.042-.156.028-.043.078-.064.152-.064h.019c.159 0 .247.078.262.234l-.004.124c.086.015.174.039.264.071.091.032.192.073.306.122L82.312 64.3c.052.018.092.041.122.069.029.028.047.072.053.133v.028c0 .022-.006.049-.016.083-.011.034-.027.066-.048.097-.022.031-.046.058-.074.08-.028.023-.058.035-.092.035-.028 0-.053-.003-.076-.007-.023-.004-.05-.018-.08-.039v.004l-.051-.028c-.089-.046-.187-.083-.294-.11V65.9l.018.009c.248.126.44.265.575.418.135.153.224.312.267.478.018.07.031.135.039.193.007.058.012.118.012.179 0 .141-.023.268-.069.382-.046.113-.109.212-.188.297-.08.084-.176.153-.287.207-.112.054-.234.09-.366.108v.331c0 .061-.012.113-.037.156-.024.043-.075.064-.152.064h-.028c-.077 0-.138-.021-.184-.062-.046-.042-.069-.102-.069-.181v-.308c-.165-.018-.308-.055-.427-.11-.12-.055-.242-.124-.368-.207-.034-.027-.057-.054-.069-.078-.012-.024-.026-.058-.041-.101v-.028c0-.027.008-.059.025-.094.017-.036.037-.069.062-.101.025-.032.051-.06.078-.083s.054-.034.078-.034c.034 0 .064.01.09.03.026.02.051.04.076.062H80.794c.006.003.01.004.013.004L80.794 67.427zM81.031 65.473c.072.067.157.127.255.179v-1.007c-.116.025-.214.072-.292.143-.078.071-.117.166-.117.285 0 .018.001.039.002.06.001.021.005.048.012.078C80.912 65.318 80.959 65.405 81.031 65.473zM81.976 66.684c-.061-.075-.135-.14-.221-.195v1.145c.107-.043.197-.109.269-.198.072-.089.108-.193.108-.312 0-.034-.003-.064-.009-.092-.006-.028-.012-.057-.018-.088C82.08 66.846 82.037 66.76 81.976 66.684zM69.426 73.132c.006 0 .018.006.037.018l-.009-.005c.089.061.169.11.239.145.071.035.146.06.225.076v-1.43l-.083-.046c-.101-.055-.198-.113-.29-.175s-.175-.129-.248-.202c-.074-.073-.136-.152-.186-.234-.051-.083-.085-.173-.104-.271-.012-.049-.019-.095-.021-.138s-.002-.089-.002-.138c0-.144.024-.27.071-.377.048-.107.113-.199.196-.274.083-.075.181-.135.294-.18.113-.044.238-.074.372-.089v-.129c0-.061.014-.113.042-.156.028-.043.078-.064.152-.064h.019c.159 0 .247.078.262.234l-.004.124c.086.015.174.039.264.071.091.032.192.073.306.122l-.013-.009c.052.018.092.041.122.069.029.028.047.072.053.133v.028c0 .022-.006.049-.016.083-.011.034-.027.066-.048.097-.022.031-.046.058-.074.08-.028.023-.058.035-.092.035-.028 0-.053-.003-.076-.007-.023-.004-.05-.018-.08-.039v.004l-.051-.028c-.089-.046-.187-.083-.294-.11v1.255l.018.009c.248.126.44.265.575.418.135.153.224.312.267.478.018.07.031.135.039.193.007.058.012.118.012.179 0 .141-.023.268-.069.382-.046.113-.109.212-.188.297-.08.084-.176.153-.287.207-.112.054-.234.09-.366.108v.331c0 .061-.012.113-.037.156-.024.043-.075.064-.152.064h-.028c-.077 0-.138-.021-.184-.062-.046-.042-.069-.102-.069-.181v-.308c-.165-.018-.308-.055-.427-.11-.12-.055-.242-.124-.368-.207-.034-.027-.057-.054-.069-.078-.012-.024-.026-.058-.041-.101v-.028c0-.027.008-.059.025-.094.017-.036.037-.069.062-.101.025-.032.051-.06.078-.083s.054-.034.078-.034c.034 0 .064.01.09.03.026.02.051.04.076.062H69.426c.006.003.01.004.013.004L69.426 73.132zM69.663 71.177c.072.067.157.127.255.179v-1.007c-.116.025-.214.072-.292.143-.078.071-.117.166-.117.285 0 .018.001.039.002.06.001.021.005.048.012.078C69.544 71.023 69.591 71.11 69.663 71.177zM70.608 72.389c-.061-.075-.135-.14-.221-.195v1.145c.107-.043.197-.109.269-.198.072-.089.108-.193.108-.312 0-.034-.003-.064-.009-.092-.006-.028-.012-.057-.018-.088C70.712 72.55 70.669 72.464 70.608 72.389z"></path>
</svg>